<svg xmlns="http://www.w3.org/2000/svg" viewBox="0 0 520 150" role="img" aria-labelledby="title desc">
  <title id="title">E-MITRA WALA logo</title>
  <desc id="desc">Blue and orange e-Mitra service logo with computer and document mark.</desc>
  <defs>
    <linearGradient id="blue" x1="0" y1="0" x2="1" y2="1">
      <stop offset="0" stop-color="#003a8c"/>
      <stop offset="1" stop-color="#0078c8"/>
    </linearGradient>
    <linearGradient id="orange" x1="0" y1="0" x2="1" y2="1">
      <stop offset="0" stop-color="#ff6b00"/>
      <stop offset="1" stop-color="#ff9d1f"/>
    </linearGradient>
    <filter id="softShadow" x="-20%" y="-20%" width="140%" height="140%">
      <feDropShadow dx="0" dy="5" stdDeviation="5" flood-color="#082b5f" flood-opacity=".18"/>
    </filter>
  </defs>
  <rect width="520" height="150" rx="24" fill="#ffffff"/>
  <g filter="url(#softShadow)">
    <path d="M35 88C25 49 54 18 95 15c29-2 54 11 68 32-19-14-41-19-64-14-32 7-53 32-47 62 6 33 39 52 75 42-39 21-82 1-92-49Z" fill="url(#orange)"/>
    <path d="M41 99c18 35 62 48 101 28-29 33-88 26-115-13-3-5-1-11 5-13l9-2Z" fill="url(#blue)"/>
    <path d="M76 45h66c8 0 14 7 13 15l-9 51c-1 8-8 14-16 14H61c-8 0-14-7-13-15l10-51c1-8 8-14 18-14Z" fill="#ffffff" stroke="url(#blue)" stroke-width="8" stroke-linejoin="round"/>
    <path d="M87 62h43" stroke="url(#blue)" stroke-width="8" stroke-linecap="round"/>
    <path d="M84 80h35" stroke="url(#blue)" stroke-width="8" stroke-linecap="round"/>
    <text x="84" y="108" font-family="Arial, Helvetica, sans-serif" font-size="54" font-weight="900" fill="url(#blue)">E</text>
    <path d="M126 87h24" stroke="url(#orange)" stroke-width="9" stroke-linecap="round"/>
    <circle cx="167" cy="93" r="13" fill="url(#blue)"/>
    <path d="M119 118h31l16 15H99l13-15Z" fill="#ffffff" stroke="url(#blue)" stroke-width="5" stroke-linejoin="round"/>
    <path d="M145 95h38l19 19v43h-57V95Z" fill="#ffffff" stroke="url(#blue)" stroke-width="5" stroke-linejoin="round"/>
    <path d="M183 96v19h18" fill="none" stroke="url(#blue)" stroke-width="5" stroke-linejoin="round"/>
    <path d="M156 123h34M156 136h34M156 149h24" stroke="#667b9b" stroke-width="4" stroke-linecap="round"/>
    <path d="M146 145c14-2 26-8 38-22 8 10 18 13 31 10-16 19-44 29-69 12Z" fill="#1aa85a"/>
  </g>
  <g font-family="Arial, Helvetica, sans-serif" font-weight="900">
    <text x="220" y="73" font-size="48" fill="url(#blue)">E-MITRA</text>
    <text x="220" y="122" font-size="48" fill="url(#orange)">WALA</text>
  </g>
  <path d="M306 86h26" stroke="url(#orange)" stroke-width="8" stroke-linecap="round"/>
  <path d="M224 134h235" stroke="url(#orange)" stroke-width="3" stroke-linecap="round"/>
  <text x="266" y="144" font-family="Arial, Helvetica, sans-serif" font-size="15" font-weight="700" fill="#173a68">Aapki suvidha, hamara prayas</text>
</svg>
